<svg xmlns="http://www.w3.org/2000/svg" xmlns:xlink="http://www.w3.org/1999/xlink" viewBox="0 0 64 64"><radialGradient id="RZD~cgcz~qOv6TJhmBZISa" cx="32.5" cy="32" r="31.751" gradientUnits="userSpaceOnUse" spreadMethod="reflect"><stop offset="0" stop-color="#edd7a1"/><stop offset=".258" stop-color="#f0dba9"/><stop offset=".667" stop-color="#f7e7c0"/><stop offset="1" stop-color="#fff3d8"/></radialGradient><path fill="url(#RZD~cgcz~qOv6TJhmBZISa)" d="M61.501,18.008h-5.09c-1.1,0-2-0.9-2-2c0-1.1,0.9-2,2-2h2c1.85,0,3.32-1.69,2.94-3.6 c-0.28-1.43-1.62-2.4-3.07-2.4L45.5,8C44.67,8,44,7.33,44,6.5C44,5.67,44.67,5,45.5,5h5.91c1.14,0,2.2-0.72,2.5-1.82 C54.36,1.52,53.1,0,51.5,0H7.59c-1.14,0-2.2,0.72-2.5,1.82C4.64,3.48,5.9,5,7.5,5h3c0.69,0,1.32,0.28,1.77,0.73 C12.72,6.18,13,6.81,13,7.5c0,1.38-1.12,2.5-2.5,2.5H4c-1.65,0-3,1.35-3,3c0,1.65,1.35,3,3,3h21c0.35,0,0.69-0.07,1-0.19V23H13v9 h4.5c1.38,0,2.5,1.12,2.5,2.5c0,0.69-0.28,1.32-0.73,1.77C18.82,36.72,18.19,37,17.5,37h-8C8.12,37,7,38.12,7,39.5S8.12,42,9.5,42h4 c1.209,0,2.218,0.859,2.45,2H5.5C3.025,44,1,46.025,1,48.5C1,50.975,3.025,53,5.5,53h19c1.38,0,2.5,1.12,2.5,2.5S25.88,58,24.5,58 H19c-1.66,0-3,1.34-3,3c0,1.66,1.34,3,3,3h40c1.66,0,3-1.34,3-3c0-1.66-1.34-3-3-3h-5.5c-1.38,0-2.5-1.12-2.5-2.5s1.12-2.5,2.5-2.5 h4c2.475,0,4.5-2.025,4.5-4.5c0-2.475-2.025-4.5-4.5-4.5H47.437c0.314-1.587-0.896-3-2.437-3c-0.83,0,1-0.67,1-1.5 c0-0.83,0.67-1.5,1.5-1.5h2.91c1.14,0,2.2-0.72,2.5-1.82C53.36,34.52,52.1,32,50.5,32H50c-1.1,0-2-5.9-2-7c0-1.1,0.9-2,2-2 l11.411,0.008c1.14,0,2.2-0.72,2.5-1.82C64.351,19.527,63.091,18.008,61.501,18.008z"/><linearGradient id="RZD~cgcz~qOv6TJhmBZISb" x1="408.664" x2="452.7" y1="417" y2="417" gradientTransform="rotate(90 417 32)" gradientUnits="userSpaceOnUse" spreadMethod="reflect"><stop offset="0" stop-color="#40daf2"/><stop offset=".259" stop-color="#3bd3ef"/><stop offset=".624" stop-color="#2ec1e8"/><stop offset="1" stop-color="#1ba7dd"/></linearGradient><path fill="url(#RZD~cgcz~qOv6TJhmBZISb)" d="M6,47V16c0-1.657,1.343-3,3-3h46c1.657,0,3,1.343,3,3v31c0,1.657-1.343,3-3,3H9 C7.343,50,6,48.657,6,47z"/><path fill="#fff" d="M50 24H29c-1.1 0-2-.9-2-2v-1c0-1.1.9-2 2-2h21c1.1 0 2 .9 2 2v1C52 23.1 51.1 24 50 24zM50 32H29c-1.1 0-2-.9-2-2v-1c0-1.1.9-2 2-2h21c1.1 0 2 .9 2 2v1C52 31.1 51.1 32 50 32z"/><linearGradient id="RZD~cgcz~qOv6TJhmBZISc" x1="32" x2="32" y1="47.121" y2="-18.735" gradientUnits="userSpaceOnUse" spreadMethod="reflect"><stop offset="0" stop-color="#155cde"/><stop offset=".278" stop-color="#1f7fe5"/><stop offset=".569" stop-color="#279ceb"/><stop offset=".82" stop-color="#2cafef"/><stop offset="1" stop-color="#2eb5f0"/></linearGradient><path fill="url(#RZD~cgcz~qOv6TJhmBZISc)" d="M25,40.5L25,40.5c0,0.828,0.672,1.5,1.5,1.5h24c0.828,0,1.5-0.672,1.5-1.5l0,0 c0-0.828-0.672-1.5-1.5-1.5h-24C25.672,39,25,39.672,25,40.5z M12,29.5L12,29.5c0,0.828,0.672,1.5,1.5,1.5h8 c0.828,0,1.5-0.672,1.5-1.5v0c0-0.828-0.672-1.5-1.5-1.5h-8C12.672,28,12,28.672,12,29.5z M12,21.5L12,21.5 c0,0.828,0.672,1.5,1.5,1.5h8c0.828,0,1.5-0.672,1.5-1.5v0c0-0.828-0.672-1.5-1.5-1.5h-8C12.672,20,12,20.672,12,21.5z M20,45h-6 c-1.105,0-2-0.895-2-2v-5c0-1.105,0.895-2,2-2h6c1.105,0,2,0.895,2,2v5C22,44.105,21.105,45,20,45z"/><linearGradient id="RZD~cgcz~qOv6TJhmBZISd" x1="17" x2="17" y1="42" y2="39" gradientUnits="userSpaceOnUse" spreadMethod="reflect"><stop offset="0" stop-color="#edfbff"/><stop offset="1" stop-color="#b8efff"/></linearGradient><path fill="url(#RZD~cgcz~qOv6TJhmBZISd)" d="M18,42h-2c-0.552,0-1-0.448-1-1v-1c0-0.552,0.448-1,1-1h2c0.552,0,1,0.448,1,1v1 C19,41.552,18.552,42,18,42z"/></svg>